<svg width="128" height="128" xmlns="http://www.w3.org/2000/svg">

 <g>
  <title>Layer 1</title>
  <g stroke="null" id="Layer_1">
   <path fill="#ffffff" stroke="null" id="svg_1" d="m102.68044,6.49415l-26.74062,39.70228a2.84286,2.84286 0 0 0 4.21987,3.73125l26.32308,-22.8317a1.06607,1.06607 0 0 1 1.77679,0.80844l0,71.48009a1.06607,1.06607 0 0 1 -1.88339,0.68406l-79.56446,-95.2446a13.63683,13.63683 0 0 0 -10.40308,-4.82397l-2.78067,0a13.62795,13.62795 0 0 0 -13.62795,13.62795l0,100.67268a13.62795,13.62795 0 0 0 13.62795,13.62795l0,0a13.63683,13.63683 0 0 0 11.62018,-6.49415l26.74062,-39.70228a2.84286,2.84286 0 0 0 -4.21987,-3.73125l-26.32308,22.8317a1.06607,1.06607 0 0 1 -1.77679,-0.80844l0,-71.49786a1.06607,1.06607 0 0 1 1.88339,-0.68406l79.55558,95.26236a13.63683,13.63683 0 0 0 10.40308,4.82397l2.78067,0a13.62795,13.62795 0 0 0 13.63683,-13.62795l0,-100.67268a13.62795,13.62795 0 0 0 -13.62795,-13.62795l0,0a13.63683,13.63683 0 0 0 -11.62018,6.49415z"/>
  </g>
 </g>
</svg>