<svg width="50" height="50" viewBox="0 0 42 53" fill="none" xmlns="http://www.w3.org/2000/svg">
<g transform="rotate(80 21 27)">
<path d="M41.6 26.525C41.6 19.125 37.6 12.225 31.2 8.52505C30.3 8.02505 29.1999 8.32505 28.5999 9.22505C28.0999 10.125 28.4 11.225 29.2999 11.825C34.5999 14.825 37.8999 20.525 37.8999 26.625C37.8999 35.625 30.8999 43.0251 22.0999 43.625L25.2 40.525C25.9 39.825 25.9 38.625 25.2 37.925C24.5 37.225 23.2999 37.225 22.5999 37.925L16.7 43.825C16.3 44.225 16.2 44.625 16.2 45.125C16.2 45.625 16.4 46.125 16.7 46.425L22.5999 52.325C22.9999 52.725 23.3999 52.825 23.8999 52.825C24.3999 52.825 24.9 52.625 25.2 52.325C25.9 51.625 25.9 50.425 25.2 49.725L22.7999 47.325C33.1999 46.225 41.6 37.325 41.6 26.525Z" fill="black"/>
<path d="M16.5 14.925C16.9 15.325 17.3 15.425 17.8 15.425C18.3 15.425 18.8 15.225 19.1 14.925L25 9.025C25.4 8.625 25.5 8.225 25.5 7.725C25.5 7.225 25.3 6.725 25 6.425L19.1 0.525C18.4 -0.175 17.2 -0.175 16.5 0.525C15.8 1.225 15.8 2.425 16.5 3.125L19.3 5.925C8.5 6.725 0 15.725 0 26.625C0 34.025 4 40.925 10.4 44.625C10.7 44.825 11 44.825 11.3 44.825C11.9 44.825 12.6 44.525 12.9 43.925C13.4 43.025 13.1 41.925 12.2 41.325C6.9 38.325 3.6 32.625 3.6 26.525C3.6 17.725 10.4 10.425 19 9.625L16.3 12.325C15.8 12.925 15.8 14.125 16.5 14.925Z" fill="black"/>
</g>
</svg>
