<svg xmlns="http://www.w3.org/2000/svg" viewBox="0 0 155.77 139.53"><defs><style>.cls-1{fill:#fa4343;}</style></defs><g id="Слой_2" data-name="Слой 2"><g id="Full_final_logo"><g id="Full_Logo"><path class="cls-1" d="M29.6,76.22H52.91C41.93,84.06,36.51,90,29,90c-7.86-.65-5.6-7.35-3.65-11.14A4.76,4.76,0,0,1,29.6,76.22Z"/><path class="cls-1" d="M31.79,139.53H6.67a.37.37,0,0,1-.35-.48l2.47-7.54a1.52,1.52,0,0,1,2.12-.89,134.2,134.2,0,0,0,21,8.2A.36.36,0,0,1,31.79,139.53Z"/><path class="cls-1" d="M126.18,76.22h-23.3c11,7.84,16.39,13.73,23.9,13.73,7.86-.65,5.6-7.35,3.65-11.14A4.75,4.75,0,0,0,126.18,76.22Z"/><path class="cls-1" d="M124,139.53h25.12a.36.36,0,0,0,.35-.48L147,131.51a1.53,1.53,0,0,0-2.13-.89,134.38,134.38,0,0,1-21,8.2A.36.36,0,0,0,124,139.53Z"/><path class="cls-1" d="M155.76,77.27c-34.28,47.9-47,3.32-67.66,3.32-8.09,0-10.22,6.53-10.22,9.4,0-2.87-2.12-9.4-10.21-9.4C47,80.59,34.29,125.17,0,77.27c-.66,52.53,49.29,65,77.87,32.09C106.47,142.22,156.42,129.8,155.76,77.27Z"/><path class="cls-1" d="M151.73,57.58c-3.84,2.06-8.09,4.1-11.72,5.66a9.56,9.56,0,0,1-3.77.77H19.53a9.59,9.59,0,0,1-3.77-.77C12.13,61.68,7.88,59.64,4,57.58a1.69,1.69,0,0,1-.81-2c.46-1.53,1.32-4.23,2.56-7.25a1.69,1.69,0,0,1,2.33-.86c3.73,1.89,6.71,3.24,9.49,4.41V29.18A1.68,1.68,0,0,1,18,28.09,78.8,78.8,0,0,1,77.88,0a78.83,78.83,0,0,1,59.89,28.09,1.72,1.72,0,0,1,.4,1.09V51.91c2.78-1.17,5.76-2.52,9.5-4.41a1.68,1.68,0,0,1,2.32.86c1.24,3,2.1,5.72,2.56,7.25A1.68,1.68,0,0,1,151.73,57.58Z"/></g></g></g></svg>